<?xml version="1.0" standalone="no"?><!DOCTYPE svg PUBLIC "-//W3C//DTD SVG 1.1//EN" "http://www.w3.org/Graphics/SVG/1.1/DTD/svg11.dtd"><svg t="1567596090898" class="icon" viewBox="0 0 1024 1024" version="1.1" xmlns="http://www.w3.org/2000/svg" p-id="1920" xmlns:xlink="http://www.w3.org/1999/xlink" width="128" height="128"><defs><style type="text/css"></style></defs><path d="M694.58 552.14a190.59 190.59 0 0 1-181.19 131.51c-100.77 0-183.25-78.23-190.05-177.27h76.85A112.43 112.43 0 1 0 530.5 383.62v-80.24a190.61 190.61 0 0 1 170.77 158h312.11C992 343 888.44 253.23 763.91 253.23q-3.39 0-6.76 0.09C730.79 141.44 630.32 58.16 510.39 58.16S290 141.44 263.63 253.32q-3.37-0.09-6.76-0.09c-140 0-253.53 113.51-253.53 253.53s113.51 253.52 253.52 253.52c2.5 0 5 0 7.47-0.12 27.4 110.43 127.16 192.28 246.06 192.28s218.66-81.85 246.06-192.28c2.48 0.07 5 0.12 7.47 0.12 124.53 0 228.08-89.78 249.47-208.14zM493.5 303.64v80a112.55 112.55 0 0 0-91.1 85.76h-78.06A190.59 190.59 0 0 1 493.5 303.64z" fill="#348CF7" p-id="1921"></path><path d="M695.27 537.87h313v22.4h-313z" fill="#348CF7" p-id="1922"></path><path d="M763.91 495.55h191.51v22.4H763.91z" fill="#E53575" p-id="1923"></path><path d="M701.27 448.66h307v26.04h-307z" fill="#348CF7" p-id="1924"></path></svg>